<?xml version="1.0" encoding="utf-8"?><svg xmlns="http://www.w3.org/2000/svg" xmlns:xlink="http://www.w3.org/1999/xlink"><symbol viewBox="0 0 6 9" id="arrow" xmlns="http://www.w3.org/2000/svg"><path d="M1 .5l4 4-4 4"/></symbol><symbol viewBox="0 0 512 512" id="barrel" xmlns="http://www.w3.org/2000/svg"><path d="M463.33 471.92h-25.19a127.978 127.978 0 00-83.85-238.02 128 128 0 10-196.63-.06 127.984 127.984 0 00-83.71 238.08H16a8 8 0 000 16h447.33a8 8 0 000-16zM144 152a112 112 0 11112 112 112.123 112.123 0 01-112-112zm133.58 126.17a126.9 126.9 0 00-21.57 37.31 128.183 128.183 0 00-21.67-37.32 128.281 128.281 0 0043.24.01zM140.1 471.92h-8.2a112 112 0 118.2 0zm57.95 0a128.74 128.74 0 0057.96-67.4 128.016 128.016 0 0057.85 67.4zm175.39 0a112.142 112.142 0 115.12 0zm122.56-.003h-8.167a8 8 0 000 16H496a8 8 0 000-16z"/><path d="M232 360a96 96 0 10-96 96 96.108 96.108 0 0096-96zm-96 80c-.263 0-.522-.018-.784-.02l80.764-80.764c0 .262.02.521.02.784a80.091 80.091 0 01-80 80zm0-160c.263 0 .522.017.784.02L56.02 360.784c0-.263-.02-.521-.02-.784a80.091 80.091 0 0180-80zM58.731 380.7l97.969-97.969a80.287 80.287 0 0156.569 56.569L115.3 437.269A80.287 80.287 0 0158.731 380.7zM256 248a96 96 0 10-96-96 96.108 96.108 0 0096 96zm80-96c0 .263-.017.522-.02.784L255.216 72.02c.262 0 .521-.02.784-.02a80.091 80.091 0 0180 80zM235.3 74.731l97.969 97.97a80.288 80.288 0 01-56.569 56.568l-97.97-97.97a80.287 80.287 0 0156.57-56.568zm-59.28 76.485l80.764 80.764c-.262 0-.521.02-.784.02a80.091 80.091 0 01-80-80c0-.263.017-.522.02-.784zm132.098 276.666a96 96 0 100-135.764 96.109 96.109 0 000 135.764zm11.313-11.314c-.186-.185-.356-.38-.54-.568h114.218c-.184.188-.354.383-.54.568a80.09 80.09 0 01-113.138 0zM445.275 400h-138.55a80.29 80.29 0 010-80h138.55a80.29 80.29 0 010 80zm-12.706-96.568c.186.185.356.38.54.568H318.891c.184-.188.354-.383.54-.568a80.09 80.09 0 01113.138 0z"/></symbol><symbol viewBox="0 0 512 512" id="buoy" xmlns="http://www.w3.org/2000/svg"><path d="M455.134 457c-6.814 3.759-12.7 7-25.138 7s-18.324-3.246-25.138-7c-7.642-4.216-16.3-9-32.866-9s-25.222 4.779-32.864 9c-6.813 3.759-12.7 7-25.137 7s-18.322-3.246-25.135-7c-7.641-4.217-16.3-9-32.864-9s-25.221 4.779-32.862 9c-6.813 3.758-12.695 7-25.135 7s-18.322-3.246-25.134-7c-7.642-4.217-16.3-9-32.864-9s-25.223 4.779-32.864 9c-6.813 3.758-12.7 7-25.136 7s-18.321-3.246-25.133-7c-7.642-4.217-16.3-9-32.864-9v16c12.439 0 18.322 3.246 25.135 7 7.641 4.217 16.3 9 32.862 9s25.223-4.779 32.864-9c6.813-3.758 12.7-7 25.136-7s18.322 3.246 25.135 7c7.641 4.217 16.3 9 32.863 9s25.222-4.779 32.864-9c6.812-3.758 12.695-7 25.133-7s18.323 3.246 25.136 7c7.642 4.216 16.3 9 32.863 9s25.224-4.779 32.865-9c6.813-3.758 12.7-7 25.136-7s18.324 3.246 25.138 7c7.642 4.216 16.305 9 32.866 9s25.224-4.779 32.866-9c6.814-3.759 12.7-7 25.138-7v-16c-16.562 0-25.224 4.779-32.866 9zM104 424a8.009 8.009 0 018-8h288a8.009 8.009 0 018 8v24h16v-24a24.027 24.027 0 00-24-24h-17.754l-52-208H344v-16h-40v-8a24.027 24.027 0 00-24-24v-25.376A24.039 24.039 0 00296 96V56a24.027 24.027 0 00-24-24h-32a24.027 24.027 0 00-24 24v40a24.039 24.039 0 0016 22.624V144a24.027 24.027 0 00-24 24v8h-40v16h13.753l-52 208H112a24.027 24.027 0 00-24 24v24h16zm86.246-200h131.508l36 144H154.246zM232 56a8.009 8.009 0 018-8h32a8.009 8.009 0 018 8v40a8.009 8.009 0 01-8 8h-32a8.009 8.009 0 01-8-8zm16 64h16v24h-16zm-24 48a8.009 8.009 0 018-8h48a8.009 8.009 0 018 8v8h-64zm89.754 24l4 16H194.246l4-16zM150.246 384h211.508l4 16H146.246z"/><path d="M256 344a48 48 0 10-48-48 48.054 48.054 0 0048 48zm0-80a32 32 0 11-32 32 32.036 32.036 0 0132-32zm-8-200h16v16h-16z"/></symbol><symbol viewBox="0 0 30 17" id="switch" xmlns="http://www.w3.org/2000/svg"><circle cx="21.5" cy="8.5" r="5.5"/><rect x=".5" y=".5" width="29" height="16" rx="8"/></symbol></svg>