<?xml version="1.0" standalone="no"?>
<!DOCTYPE svg PUBLIC "-//W3C//DTD SVG 20010904//EN"
 "http://www.w3.org/TR/2001/REC-SVG-20010904/DTD/svg10.dtd">
<svg version="1.0" xmlns="http://www.w3.org/2000/svg"
 width="250.000000pt" height="250.000000pt" viewBox="0 0 250.000000 250.000000"
 preserveAspectRatio="xMidYMid meet">
<metadata>
Created by potrace 1.11, written by Peter Selinger 2001-2013
</metadata>
<g transform="translate(0.000000,250.000000) scale(0.100000,-0.100000)"
fill="#000000" stroke="none">
<path d="M315 2472 c-120 -42 -214 -125 -268 -240 l-32 -67 -3 -894 c-3 -974
-4 -949 53 -1045 34 -58 118 -139 173 -169 104 -57 103 -57 1008 -57 524 0
851 4 885 10 180 34 325 179 359 359 6 34 10 361 10 885 0 905 0 904 -57 1008
-41 75 -113 142 -200 185 l-77 38 -900 2 c-835 2 -905 1 -951 -15z m1370 -661
c63 -16 108 -86 174 -275 17 -49 43 -102 57 -119 56 -66 61 -89 69 -290 4
-103 11 -190 16 -193 12 -7 11 -54 -1 -54 -6 0 -10 -39 -10 -98 0 -63 -4 -102
-12 -110 -16 -16 -190 -16 -206 0 -7 7 -12 44 -12 95 l0 83 -505 0 -505 0 0
-79 c0 -107 -5 -111 -124 -111 -58 0 -96 4 -104 12 -8 8 -12 47 -12 110 0 59
-4 98 -10 98 -5 0 -10 11 -10 25 0 14 4 25 9 25 4 0 12 84 16 187 8 202 13
223 75 303 14 19 41 78 59 130 39 113 83 198 120 234 22 21 41 27 111 35 109
12 752 6 805 -8z m-1102 -313 c3 -44 1 -67 -9 -77 -11 -12 -15 -10 -25 12 -10
23 -18 27 -54 27 -47 0 -65 13 -65 50 0 40 18 50 86 50 l62 0 5 -62z m1476 48
c7 -8 11 -30 9 -48 -3 -32 -5 -33 -50 -36 -37 -2 -50 -8 -59 -25 -17 -32 -18
-32 -32 -14 -7 11 -11 40 -9 77 l4 60 63 0 c42 0 66 -5 74 -14z"/>
<path d="M1143 1672 c-35 -59 -74 -126 -88 -149 l-26 -43 83 0 83 0 83 140
c45 76 82 144 82 150 0 6 -31 10 -77 10 l-78 0 -62 -108z"/>
<path d="M853 1763 c-62 -5 -57 3 -116 -162 l-44 -121 92 0 92 0 82 140 c44
77 81 142 81 145 0 5 -96 4 -187 -2z"/>
<path d="M1415 1683 c-27 -48 -65 -113 -83 -145 l-34 -58 60 0 60 0 81 136
c45 75 81 140 81 145 0 5 -26 9 -57 9 l-58 0 -50 -87z"/>
<path d="M1545 1643 c-38 -65 -75 -128 -83 -140 l-14 -23 180 0 181 0 -44 123
c-24 67 -46 130 -50 140 -5 13 -19 17 -54 17 l-47 0 -69 -117z"/>
<path d="M550 1251 c0 -22 2 -41 4 -41 2 0 11 -3 20 -6 13 -5 16 1 16 31 l0
36 98 -6 c145 -9 142 -8 142 -59 l0 -43 -55 8 c-147 20 -142 19 -110 9 126
-41 671 -65 910 -41 120 12 289 41 282 48 -4 3 -103 -10 -164 -23 -21 -4 -23
-1 -23 41 0 52 -4 51 143 60 l97 6 0 -35 c0 -39 2 -41 31 -26 13 8 19 21 19
47 l0 36 -47 -7 c-337 -43 -1001 -43 -1317 0 l-46 7 0 -42z m831 -47 c9 -11
10 -20 2 -32 -15 -25 -251 -25 -266 0 -8 12 -7 21 2 32 20 23 242 23 262 0z"/>
<path d="M792 988 c-19 -19 -14 -55 10 -72 20 -14 80 -16 453 -16 330 0 435 3
447 13 24 19 28 43 12 66 -15 21 -18 21 -463 21 -334 0 -450 -3 -459 -12z"/>
</g>
</svg>
